<svg width="574" height="616" viewBox="0 0 574 616" fill="none" xmlns="http://www.w3.org/2000/svg">
<path d="M135.869 57.0925C127.869 37.4392 128.206 21.522 107.654 12.9585C69.3922 -2.98439 55.6268 -3.47937 39.0591 9.36309C7.96342 33.4669 6.57835 99.5242 6.57835 99.5242C6.57835 99.5242 -8.39524 222.322 9.74639 296.145C32.5826 389.072 73.3838 432.448 133.284 507.73C182.276 569.303 222.309 590.86 307.474 581.897C418.041 570.261 417.89 648.573 485.265 599.442C572.933 535.513 557.225 497.152 571.47 397.032C581.69 325.202 551.505 262.417 501.712 225.662C458.278 193.602 344.833 318.195 291.695 301.42C219.874 278.746 292.468 169.052 242.739 116.948C210.512 83.1812 180.378 166.435 135.869 57.0925Z" fill="#033330"/>
</svg>
