<svg width="34" height="35" viewBox="0 0 34 35" fill="none" xmlns="http://www.w3.org/2000/svg">
<path d="M26.9702 5.72285C27.104 5.58768 27.2086 5.42867 27.278 5.25491C27.3474 5.08115 27.3803 4.89603 27.3748 4.71013C27.3693 4.52422 27.3255 4.34118 27.2459 4.17144C27.1663 4.0017 27.0525 3.84859 26.9109 3.72086C26.7694 3.59313 26.6028 3.49327 26.4209 3.42698C26.2389 3.3607 26.045 3.32929 25.8503 3.33455C25.6556 3.33981 25.4639 3.38163 25.2862 3.45763C25.1084 3.53363 24.9481 3.64232 24.8143 3.77749L12.211 16.52C11.9507 16.7829 11.8057 17.1309 11.8057 17.4927C11.8057 17.8545 11.9507 18.2025 12.211 18.4654L24.8143 31.2093C24.9472 31.3474 25.1075 31.459 25.2859 31.5375C25.4643 31.6159 25.6573 31.6598 25.8536 31.6664C26.0499 31.6731 26.2456 31.6424 26.4294 31.5763C26.6132 31.5101 26.7814 31.4097 26.9243 31.2809C27.0671 31.1521 27.1817 30.9975 27.2614 30.8261C27.3411 30.6547 27.3844 30.4698 27.3886 30.2823C27.3929 30.0948 27.3581 29.9083 27.2863 29.7337C27.2145 29.5592 27.107 29.4 26.9702 29.2654L15.3277 17.4927L26.9702 5.72285Z" fill="#757575"/>
<path d="M5.66699 31.6673L5.66699 3.33398" stroke="#757575" stroke-width="3" stroke-linecap="round" stroke-linejoin="round"/>
</svg>
