<svg width="28" height="29" viewBox="0 0 28 29" fill="none" xmlns="http://www.w3.org/2000/svg">
<path d="M21.75 3.5C22.612 3.5 23.4386 3.84241 24.0481 4.4519C24.6576 5.0614 25 5.88805 25 6.75V22.25C25 23.112 24.6576 23.9386 24.0481 24.5481C23.4386 25.1576 22.612 25.5 21.75 25.5H6.25C5.38805 25.5 4.5614 25.1576 3.9519 24.5481C3.34241 23.9386 3 23.112 3 22.25V6.75C3 5.88805 3.34241 5.0614 3.9519 4.4519C4.5614 3.84241 5.38805 3.5 6.25 3.5H21.75ZM19 12.5H9C8.75507 12.5 8.51866 12.59 8.33563 12.7527C8.15259 12.9155 8.03566 13.1397 8.007 13.383L8 13.5V19.5C8.00003 19.7449 8.08996 19.9813 8.25272 20.1644C8.41547 20.3474 8.63975 20.4643 8.883 20.493L9 20.5H19C19.2449 20.5 19.4813 20.41 19.6644 20.2473C19.8474 20.0845 19.9643 19.8603 19.993 19.617L20 19.5V13.5C20 13.2551 19.91 13.0187 19.7473 12.8356C19.5845 12.6526 19.3603 12.5357 19.117 12.507L19 12.5ZM18.5 14V19H9.5V14H18.5ZM19 8.5H9L8.898 8.507C8.71849 8.5317 8.55399 8.62055 8.43491 8.75714C8.31583 8.89372 8.25023 9.0688 8.25023 9.25C8.25023 9.4312 8.31583 9.60628 8.43491 9.74286C8.55399 9.87945 8.71849 9.9683 8.898 9.993L9 10H19L19.102 9.993C19.2815 9.9683 19.446 9.87945 19.5651 9.74286C19.6842 9.60628 19.7498 9.4312 19.7498 9.25C19.7498 9.0688 19.6842 8.89372 19.5651 8.75714C19.446 8.62055 19.2815 8.5317 19.102 8.507L19 8.5Z" fill="#757575"/>
</svg>
