<svg width="34" height="34" viewBox="0 0 34 34" fill="none" xmlns="http://www.w3.org/2000/svg">
<path d="M5.36076 9.42997C5.22718 9.29262 5.07005 9.18525 4.89833 9.11398C4.72661 9.04271 4.54367 9.00893 4.35995 9.01459C4.17624 9.02024 3.99534 9.06521 3.8276 9.14693C3.65986 9.22865 3.50856 9.34552 3.38232 9.49087C3.25609 9.63621 3.15741 9.80719 3.09191 9.99403C3.0264 10.1809 2.99536 10.3799 3.00056 10.5798C3.00576 10.7797 3.04709 10.9765 3.12219 11.159C3.1973 11.3416 3.30471 11.5062 3.43829 11.6435L16.0309 24.5839C16.2907 24.8511 16.6346 25 16.9921 25C17.3496 25 17.6936 24.8511 17.9534 24.5839L30.5474 11.6435C30.6839 11.5071 30.7941 11.3425 30.8717 11.1593C30.9492 10.9761 30.9925 10.778 30.9991 10.5764C31.0057 10.3749 30.9754 10.1739 30.91 9.98521C30.8446 9.7965 30.7454 9.62381 30.6181 9.47717C30.4909 9.33053 30.3381 9.21287 30.1687 9.13102C29.9993 9.04916 29.8166 9.00475 29.6313 9.00036C29.446 8.99597 29.2617 9.03168 29.0892 9.10544C28.9167 9.17919 28.7593 9.2895 28.6263 9.42997L16.9921 21.3838L5.36076 9.42997Z" fill="#757575"/>
</svg>
