<svg width="35" height="35" viewBox="0 0 35 35" fill="none" xmlns="http://www.w3.org/2000/svg">
<path d="M21.2241 14.5833C22.6328 14.5833 23.7762 15.7267 23.7762 17.1354V24.061C23.7762 25.8019 23.0846 27.4715 21.8536 28.7025C20.6227 29.9334 18.9531 30.625 17.2122 30.625C15.4714 30.625 13.8018 29.9334 12.5708 28.7025C11.3398 27.4715 10.6483 25.8019 10.6483 24.061V17.1354C10.6483 15.7267 11.7901 14.5833 13.2003 14.5833H21.2241ZM10.1072 14.5833C9.58027 15.2144 9.2641 15.9947 9.20305 16.8146L9.18847 17.1354V24.061C9.18847 25.2962 9.46847 26.4658 9.96722 27.51C9.485 27.6413 8.98187 27.7074 8.45784 27.7083C7.69168 27.7083 6.93302 27.5574 6.22519 27.2642C5.51736 26.9709 4.87423 26.5411 4.33254 25.9993C3.79085 25.4574 3.3612 24.8142 3.06813 24.1063C2.77506 23.3984 2.62432 22.6397 2.62451 21.8735V17.1354C2.62454 16.4949 2.86539 15.8779 3.29925 15.4067C3.73312 14.9356 4.32828 14.6448 4.9666 14.5921L5.1766 14.5833H10.1072ZM24.3172 14.5833H29.2391C30.6478 14.5833 31.7912 15.7267 31.7912 17.1354V21.875C31.7914 22.7692 31.586 23.6515 31.1909 24.4537C30.7958 25.2558 30.2216 25.9565 29.5126 26.5014C28.8036 27.0463 27.9789 27.4209 27.102 27.5963C26.2252 27.7717 25.3198 27.7432 24.4558 27.5129C24.8933 26.5971 25.1616 25.5879 25.2214 24.5204L25.2345 24.061V17.1354C25.2345 16.1656 24.8918 15.276 24.3172 14.5833ZM17.2078 4.375C18.3682 4.375 19.481 4.83594 20.3014 5.65641C21.1219 6.47688 21.5828 7.58968 21.5828 8.75C21.5828 9.91032 21.1219 11.0231 20.3014 11.8436C19.481 12.6641 18.3682 13.125 17.2078 13.125C16.0475 13.125 14.9347 12.6641 14.1143 11.8436C13.2938 11.0231 12.8328 9.91032 12.8328 8.75C12.8328 7.58968 13.2938 6.47688 14.1143 5.65641C14.9347 4.83594 16.0475 4.375 17.2078 4.375ZM26.687 5.83333C27.6539 5.83333 28.5813 6.21745 29.265 6.90117C29.9487 7.5849 30.3328 8.51223 30.3328 9.47917C30.3328 10.4461 29.9487 11.3734 29.265 12.0572C28.5813 12.7409 27.6539 13.125 26.687 13.125C25.7201 13.125 24.7927 12.7409 24.109 12.0572C23.4253 11.3734 23.0412 10.4461 23.0412 9.47917C23.0412 8.51223 23.4253 7.5849 24.109 6.90117C24.7927 6.21745 25.7201 5.83333 26.687 5.83333ZM7.72868 5.83333C8.69561 5.83333 9.62295 6.21745 10.3067 6.90117C10.9904 7.5849 11.3745 8.51223 11.3745 9.47917C11.3745 10.4461 10.9904 11.3734 10.3067 12.0572C9.62295 12.7409 8.69561 13.125 7.72868 13.125C6.76174 13.125 5.83441 12.7409 5.15069 12.0572C4.46696 11.3734 4.08285 10.4461 4.08285 9.47917C4.08285 8.51223 4.46696 7.5849 5.15069 6.90117C5.83441 6.21745 6.76174 5.83333 7.72868 5.83333Z" fill="url(#paint0_linear_1152_2322)"/>
<defs>
<linearGradient id="paint0_linear_1152_2322" x1="17.2078" y1="4.375" x2="17.2078" y2="30.625" gradientUnits="userSpaceOnUse">
<stop stop-color="#EF441F"/>
<stop offset="1" stop-color="#FCCD06"/>
</linearGradient>
</defs>
</svg>
